<svg width="20" height="20" viewBox="0 0 20 20" fill="none" xmlns="http://www.w3.org/2000/svg">
<path d="M9.99964 -0.000976562C15.5233 -0.000976562 20.0011 4.47687 20.0011 10.0006C20.0011 15.5243 15.5233 20.0021 9.99964 20.0021C4.4759 20.0021 -0.00195312 15.5243 -0.00195312 10.0006C-0.00195312 4.47687 4.4759 -0.000976562 9.99964 -0.000976562ZM12.9385 14.5003H7.0607C7.71274 16.9144 8.84614 18.5021 9.99964 18.5021C11.1531 18.5021 12.2864 16.9144 12.9385 14.5003ZM5.50791 14.5009L2.78543 14.5007C3.74377 16.0338 5.17721 17.2394 6.8796 17.9114C6.35732 17.0915 5.92633 16.0653 5.60933 14.8959L5.50791 14.5009ZM17.2137 14.5007L14.4913 14.5009C14.1675 15.8346 13.6999 17.0004 13.1185 17.9114C14.7155 17.2814 16.0752 16.1824 17.0285 14.7843L17.2137 14.5007ZM5.09303 7.99992H1.73542L1.73066 8.0171C1.57858 8.6535 1.49805 9.3176 1.49805 10.0006C1.49805 11.0567 1.69064 12.0679 2.04262 13.0009L5.21578 13.0005C5.07348 12.0514 4.99805 11.0432 4.99805 10.0006C4.99805 9.3166 5.03052 8.6474 5.09303 7.99992ZM13.3965 7.99999H6.60268C6.53465 8.6403 6.49805 9.31 6.49805 10.0006C6.49805 11.0601 6.5842 12.0704 6.73779 13.0007H13.2614C13.415 12.0704 13.5011 11.0601 13.5011 10.0006C13.5011 9.31 13.4645 8.6403 13.3965 7.99999ZM18.2642 7.99909L14.9061 7.99994C14.9687 8.6474 15.0011 9.3166 15.0011 10.0006C15.0011 11.0432 14.9257 12.0514 14.7834 13.0005L17.9565 13.0009C18.3085 12.0679 18.5011 11.0567 18.5011 10.0006C18.5011 9.3112 18.4191 8.6409 18.2642 7.99909ZM6.88065 2.08973L6.85775 2.09844C4.81043 2.91315 3.15442 4.50046 2.24975 6.50033L5.29787 6.50069C5.61123 4.7479 6.15807 3.22198 6.88065 2.08973ZM9.99964 1.49902L9.88394 1.50432C8.61854 1.62008 7.39603 3.62205 6.82832 6.50027H13.1709C12.6047 3.63011 11.3875 1.63131 10.1259 1.50534L9.99964 1.49902ZM13.1196 2.08979L13.2264 2.26388C13.8956 3.37635 14.4037 4.83623 14.7013 6.50069L17.7494 6.50033C16.8848 4.58892 15.3338 3.05439 13.4108 2.21106L13.1196 2.08979Z" fill="#161616"/>
</svg>
