<svg width="24" height="24" viewBox="0 0 24 24" fill="none" xmlns="http://www.w3.org/2000/svg">
<path d="M11.1578 20.4753C11.2231 21.0058 11.3981 21.5253 11.6827 21.9972C8.69339 21.9379 6.41514 21.033 4.90194 19.2609C4.32218 18.582 4.00366 17.7185 4.00366 16.8257V16.2481C4.00366 15.006 5.01052 13.9992 6.25254 13.9992H15.5256L14.0256 15.4992H6.25254C5.83895 15.4992 5.50366 15.8345 5.50366 16.2481V16.8257C5.50366 17.3614 5.69477 17.8795 6.04263 18.2869C7.1635 19.5994 8.8543 20.3346 11.1578 20.4753ZM12.0001 2.00391C14.7615 2.00391 17.0001 4.24249 17.0001 7.00391C17.0001 9.76534 14.7615 12.0039 12.0001 12.0039C9.2387 12.0039 7.00012 9.76534 7.00012 7.00391C7.00012 4.24249 9.2387 2.00391 12.0001 2.00391ZM12.0001 3.50391C10.0671 3.50391 8.50012 5.07092 8.50012 7.00391C8.50012 8.93691 10.0671 10.5039 12.0001 10.5039C13.9331 10.5039 15.5001 8.93691 15.5001 7.00391C15.5001 5.07092 13.9331 3.50391 12.0001 3.50391ZM22.0303 12.9694C20.909 11.8481 19.091 11.8481 17.9697 12.9694L12.9697 17.9694C11.8483 19.0907 11.8483 20.9087 12.9697 22.0301C14.091 23.1514 15.909 23.1514 17.0303 22.0301L22.0303 17.0301C23.1516 15.9087 23.1516 14.0907 22.0303 12.9694ZM19.0303 14.0301C19.5658 13.4945 20.4341 13.4945 20.9697 14.0301C21.5052 14.5656 21.5052 15.4339 20.9697 15.9694L19 17.9391L17.0606 15.9997L19.0303 14.0301ZM17.0303 18.9692C17.3232 19.2621 17.3232 19.7369 17.0303 20.0298L16.0303 21.0298C15.7374 21.3227 15.2626 21.3227 14.9697 21.0298C14.6768 20.7369 14.6768 20.2621 14.9697 19.9692L15.9697 18.9692C16.2626 18.6763 16.7374 18.6763 17.0303 18.9692Z" fill="#212121"/>
</svg>
