<svg width="24" height="24" viewBox="0 0 24 24" fill="none" xmlns="http://www.w3.org/2000/svg">
<path d="M8.144 6.30748C8.57804 6.0756 9.04511 6.00101 9.49986 6.00098C10.0263 6.00095 10.6377 6.17388 11.1315 6.57854C11.6485 7.00217 11.9999 7.65211 11.9999 8.50025C11.9999 9.47484 11.3112 10.0039 10.9229 10.3022C10.8927 10.3254 10.8644 10.3472 10.8383 10.3677C10.4137 10.7014 10.2499 10.8797 10.2499 11.2502C10.2499 11.6644 9.91411 12.0002 9.4999 12.0002C9.08569 12.0002 8.7499 11.6644 8.7499 11.2502C8.7499 10.1162 9.46115 9.5422 9.9115 9.18831C10.4248 8.78494 10.4999 8.69509 10.4999 8.50025C10.4999 8.10321 10.3513 7.8785 10.1808 7.73878C9.98714 7.5801 9.72352 7.50097 9.49994 7.50098C9.20469 7.501 9.00176 7.54987 8.8508 7.63052C8.70735 7.70715 8.55557 7.84171 8.40923 8.11162C8.21181 8.47576 7.75657 8.61091 7.39244 8.41349C7.0283 8.21607 6.89315 7.76083 7.09057 7.39669C7.35423 6.91037 7.70245 6.54336 8.144 6.30748Z" fill="#212121"/>
<path d="M9.50007 15.0001C10.0524 15.0001 10.5001 14.5524 10.5001 14.0001C10.5001 13.4477 10.0524 13 9.50007 13C8.94775 13 8.5 13.4477 8.5 14.0001C8.5 14.5524 8.94775 15.0001 9.50007 15.0001Z" fill="#212121"/>
<path d="M9.50005 3C5.35792 3 2.00005 6.35786 2.00005 10.5C2.00005 11.6329 2.25172 12.7088 2.70271 13.6734C2.44867 14.6714 2.16486 15.7842 1.97847 16.5147C1.74544 17.428 2.56787 18.2588 3.48221 18.039C4.23244 17.8587 5.38546 17.5819 6.41294 17.337C7.35525 17.7631 8.40089 18 9.50005 18C13.6422 18 17.0001 14.6421 17.0001 10.5C17.0001 6.35786 13.6422 3 9.50005 3ZM3.50005 10.5C3.50005 7.18629 6.18634 4.5 9.50005 4.5C12.8138 4.5 15.5001 7.18629 15.5001 10.5C15.5001 13.8137 12.8138 16.5 9.50005 16.5C8.53932 16.5 7.63335 16.2748 6.83009 15.8749L6.58667 15.7537L6.32216 15.8167C5.39943 16.0363 4.33336 16.2919 3.5344 16.4838C3.73315 15.7047 3.99632 14.6724 4.22448 13.7757L4.29467 13.4998L4.16415 13.2468C3.73993 12.4246 3.50005 11.4914 3.50005 10.5Z" fill="#212121"/>
<path d="M14.5001 20.9997C12.5307 20.9997 10.7386 20.2406 9.40039 18.9991C9.43359 18.9995 9.46683 18.9997 9.50011 18.9997C10.2181 18.9997 10.9152 18.9106 11.5812 18.743C12.4451 19.225 13.4405 19.4997 14.5001 19.4997C15.4608 19.4997 16.3668 19.2744 17.17 18.8745L17.4135 18.7533L17.678 18.8163C18.5995 19.0357 19.6431 19.2621 20.4171 19.4258C20.2422 18.6753 20.0035 17.6707 19.7756 16.7753L19.7055 16.4995L19.836 16.2465C20.2602 15.4243 20.5001 14.4911 20.5001 13.4997C20.5001 11.3849 19.4061 9.52581 17.7531 8.45725C17.5747 7.73399 17.3038 7.0472 16.9535 6.41016C19.8908 7.42648 22.0001 10.2167 22.0001 13.4997C22.0001 14.6328 21.7483 15.709 21.2971 16.6737C21.5501 17.6817 21.8064 18.7736 21.9689 19.4769C22.1733 20.3619 21.3939 21.1629 20.5014 20.9764C19.7743 20.8244 18.6318 20.5806 17.588 20.3363C16.6455 20.7626 15.5996 20.9997 14.5001 20.9997Z" fill="#212121"/>
</svg>
